<?xml version="1.0" encoding="UTF-8"?>
<svg id="Layer_2" data-name="Layer 2" xmlns="http://www.w3.org/2000/svg" xmlns:xlink="http://www.w3.org/1999/xlink" viewBox="0 0 510 80">
  <defs>
    <style>
      .cls-1 {
        stroke: url(#linear-gradient-7);
      }

      .cls-1, .cls-2, .cls-3, .cls-4, .cls-5, .cls-6 {
        fill: rgba(255, 255, 255, .1);
      }

      .cls-7 {
        stroke: url(#linear-gradient-2);
        stroke-opacity: .95;
      }

      .cls-7, .cls-8, .cls-9 {
        fill: none;
      }

      .cls-10 {
        mask: url(#mask-2);
      }

      .cls-11 {
        mask: url(#mask-3);
      }

      .cls-8, .cls-12, .cls-13, .cls-14, .cls-15, .cls-16 {
        stroke-width: 0px;
      }

      .cls-12 {
        fill: #60a5fa;
      }

      .cls-2 {
        stroke: url(#linear-gradient-3);
      }

      .cls-13 {
        fill: rgba(128, 48, 7, .73);
      }

      .cls-14 {
        fill: #fff;
      }

      .cls-17 {
        clip-path: url(#clippath);
      }

      .cls-3 {
        stroke: url(#linear-gradient-4);
      }

      .cls-4 {
        stroke: url(#linear-gradient-8);
      }

      .cls-5 {
        stroke: url(#linear-gradient-6);
      }

      .cls-15 {
        fill: #1d4ed8;
      }

      .cls-9 {
        stroke: url(#linear-gradient);
      }

      .cls-18 {
        mask: url(#mask-1);
      }

      .cls-19 {
        mask: url(#mask);
      }

      .cls-16 {
        fill: #3b82f6;
      }

      .cls-6 {
        stroke: url(#linear-gradient-5);
      }
    </style>
    <clipPath id="clippath">
      <rect class="cls-8" x="215" width="80" height="80" rx="16" ry="16"/>
    </clipPath>
    <linearGradient id="linear-gradient" x1="668.9" y1="487.99" x2="619.1" y2="437.79" gradientTransform="translate(-207.89 -604) rotate(90) scale(1 -1)" gradientUnits="userSpaceOnUse">
      <stop offset="0" stop-color="#60a5fa"/>
      <stop offset="1" stop-color="#60a5fa" stop-opacity="0"/>
    </linearGradient>
    <mask id="mask" x="275.5" y="-10" width="30.5" height="30.5" maskUnits="userSpaceOnUse">
      <g id="path-6-inside-1_371_286" data-name="path-6-inside-1 371 286">
        <path class="cls-14" d="M300-10c3.31,0,6,2.69,6,6V14c0,3.31-2.69,6-6,6h-18c-3.31,0-6-2.69-6-6V-4c0-3.31,2.69-6,6-6h18Z"/>
      </g>
    </mask>
    <mask id="mask-1" x="204" y="-10.5" width="30.5" height="31" maskUnits="userSpaceOnUse">
      <g id="path-8-inside-2_371_286" data-name="path-8-inside-2 371 286">
        <path class="cls-14" d="M228-10c3.31,0,6,2.69,6,6V14c0,3.31-2.69,6-6,6h-18c-3.31,0-6-2.69-6-6V-4c0-3.31,2.69-6,6-6h18Z"/>
      </g>
    </mask>
    <mask id="mask-2" x="275.5" y="59.5" width="30.5" height="30.5" maskUnits="userSpaceOnUse">
      <g id="path-10-inside-3_371_286" data-name="path-10-inside-3 371 286">
        <path class="cls-14" d="M300,60c3.31,0,6,2.69,6,6v18c0,3.31-2.69,6-6,6h-18c-3.31,0-6-2.69-6-6v-18c0-3.31,2.69-6,6-6h18Z"/>
      </g>
    </mask>
    <mask id="mask-3" x="204" y="59.5" width="30.5" height="30.5" maskUnits="userSpaceOnUse">
      <g id="path-12-inside-4_371_286" data-name="path-12-inside-4 371 286">
        <path class="cls-14" d="M228,60c3.31,0,6,2.69,6,6v18c0,3.31-2.69,6-6,6h-18c-3.31,0-6-2.69-6-6v-18c0-3.31,2.69-6,6-6h18Z"/>
      </g>
    </mask>
    <linearGradient id="linear-gradient-2" x1="633.35" y1="502.44" x2="713.55" y2="422.44" gradientTransform="translate(-207.89 -633) rotate(90) scale(1 -1)" gradientUnits="userSpaceOnUse">
      <stop offset="0" stop-color="#fff"/>
      <stop offset="1" stop-color="#60a5fa" stop-opacity=".5"/>
    </linearGradient>
    <linearGradient id="linear-gradient-3" x1="355" y1="69.89" x2="355" y2="9.89" gradientTransform="translate(0 79.89) scale(1 -1)" gradientUnits="userSpaceOnUse">
      <stop offset="0" stop-color="#fff" stop-opacity=".2"/>
      <stop offset="1" stop-color="#000" stop-opacity="0"/>
    </linearGradient>
    <linearGradient id="linear-gradient-4" x1="430" y1="64.89" x2="430" y2="14.89" xlink:href="#linear-gradient-3"/>
    <linearGradient id="linear-gradient-5" x1="492.5" y1="57.89" x2="492.5" y2="22.89" xlink:href="#linear-gradient-3"/>
    <linearGradient id="linear-gradient-6" x1="155" x2="155" xlink:href="#linear-gradient-3"/>
    <linearGradient id="linear-gradient-7" x1="80" y1="64.89" x2="80" y2="14.89" xlink:href="#linear-gradient-3"/>
    <linearGradient id="linear-gradient-8" x1="17.5" y1="57.89" x2="17.5" y2="22.89" xlink:href="#linear-gradient-3"/>
  </defs>
  <g id="Layer_1-2" data-name="Layer 1">
    <g class="cls-17">
      <g>
        <rect class="cls-15" x="215" width="80" height="80" rx="16" ry="16"/>
        <circle class="cls-13" cx="255" cy="40" r="25"/>
        <rect class="cls-16" x="230" y="15" width="50" height="50" rx="10" ry="10"/>
        <rect class="cls-9" x="230" y="15" width="50" height="50" rx="10" ry="10"/>
        <path class="cls-16" d="M300-10c3.31,0,6,2.69,6,6V14c0,3.31-2.69,6-6,6h-18c-3.31,0-6-2.69-6-6V-4c0-3.31,2.69-6,6-6h18Z"/>
        <g class="cls-19">
          <path class="cls-12" d="M306-10v30V-10ZM282,20.5c-3.59,0-6.5-2.91-6.5-6.5V-3.5c0-3.59,2.91-6.5,6.5-6.5-3.04,0-5.5,2.69-5.5,6V14c0,3.04,2.46,5.5,5.5,5.5v1ZM276-10h30-30ZM306,14c0,3.59-2.91,6.5-6.5,6.5h-17.5c-3.59,0-6.5-2.91-6.5-6.5h1c0,3.04,2.46,5.5,5.5,5.5h18c3.31,0,6-2.46,6-5.5Z"/>
        </g>
        <path class="cls-16" d="M228-10c3.31,0,6,2.69,6,6V14c0,3.31-2.69,6-6,6h-18c-3.31,0-6-2.69-6-6V-4c0-3.31,2.69-6,6-6h18Z"/>
        <g class="cls-18">
          <path class="cls-12" d="M228-10.5c3.59,0,6.5,2.91,6.5,6.5V14c0,3.59-2.91,6.5-6.5,6.5v-1c3.04,0,5.5-2.46,5.5-5.5V-4c0-3.04-2.46-5.5-5.5-5.5v-1ZM204,20V-10v30ZM204-4c0-3.59,2.91-6.5,6.5-6.5h17.5c3.59,0,6.5,2.91,6.5,6.5h-1c0-3.04-2.46-5.5-5.5-5.5h-18c-3.31,0-6,2.46-6,5.5ZM234.5,14c0,3.59-2.91,6.5-6.5,6.5h-17.5c-3.59,0-6.5-2.91-6.5-6.5,0,3.04,2.69,5.5,6,5.5h18c3.04,0,5.5-2.46,5.5-5.5h1Z"/>
        </g>
        <path class="cls-16" d="M300,60c3.31,0,6,2.69,6,6v18c0,3.31-2.69,6-6,6h-18c-3.31,0-6-2.69-6-6v-18c0-3.31,2.69-6,6-6h18Z"/>
        <g class="cls-10">
          <path class="cls-12" d="M306,60v30-30ZM282,90c-3.59,0-6.5-2.91-6.5-6.5v-17.5c0-3.59,2.91-6.5,6.5-6.5v1c-3.04,0-5.5,2.46-5.5,5.5v18c0,3.31,2.46,6,5.5,6ZM275.5,66c0-3.59,2.91-6.5,6.5-6.5h17.5c3.59,0,6.5,2.91,6.5,6.5,0-3.04-2.69-5.5-6-5.5h-18c-3.04,0-5.5,2.46-5.5,5.5h-1ZM306,90h-30,30Z"/>
        </g>
        <path class="cls-16" d="M228,60c3.31,0,6,2.69,6,6v18c0,3.31-2.69,6-6,6h-18c-3.31,0-6-2.69-6-6v-18c0-3.31,2.69-6,6-6h18Z"/>
        <g class="cls-11">
          <path class="cls-12" d="M228,59.5c3.59,0,6.5,2.91,6.5,6.5v17.5c0,3.59-2.91,6.5-6.5,6.5,3.04,0,5.5-2.69,5.5-6v-18c0-3.04-2.46-5.5-5.5-5.5v-1ZM204,90v-30,30ZM204,66c0-3.59,2.91-6.5,6.5-6.5h17.5c3.59,0,6.5,2.91,6.5,6.5h-1c0-3.04-2.46-5.5-5.5-5.5h-18c-3.31,0-6,2.46-6,5.5ZM234,90h-30,30Z"/>
        </g>
        <path class="cls-14" d="M261.13,36l-.86.62-.87.63c.3.71.46,1.48.46,2.29,0,3.29-2.68,5.97-5.97,5.97h-17.05l-1.43,1.04-1.43,1.04h19.92c4.44,0,8.06-3.61,8.06-8.06,0-1.27-.3-2.48-.82-3.55ZM248.5,44.16l.87-.63.88-.64c-.3-.72-.46-1.5-.46-2.32,0-3.34,2.72-6.05,6.05-6.05h17.29l1.45-1.06,1.45-1.06h-20.19c-4.5,0-8.17,3.66-8.17,8.17,0,1.29.3,2.51.84,3.59Z"/>
      </g>
    </g>
    <rect class="cls-7" x="215.5" y=".5" width="79" height="79" rx="15.5" ry="15.5"/>
    <circle class="cls-2" cx="355" cy="40" r="29.5"/>
    <path class="cls-14" d="M352,44.29l7.79-4.29-7.79-4.29v8.57ZM369.34,33.1c.2.67.33,1.57.42,2.71.1,1.14.15,2.13.15,2.99l.09,1.2c0,3.13-.24,5.43-.66,6.9-.38,1.29-1.24,2.11-2.6,2.47-.7.19-1.99.31-3.98.4-1.95.1-3.73.14-5.38.14l-2.39.09c-6.29,0-10.2-.23-11.74-.63-1.35-.36-2.22-1.19-2.6-2.47-.2-.67-.33-1.57-.42-2.71-.1-1.14-.15-2.13-.15-2.99l-.09-1.2c0-3.13.24-5.43.66-6.9.38-1.29,1.24-2.11,2.6-2.47.7-.19,1.99-.31,3.98-.4,1.95-.1,3.73-.14,5.38-.14l2.39-.09c6.29,0,10.2.23,11.74.63,1.35.36,2.22,1.19,2.6,2.47Z"/>
    <circle class="cls-3" cx="430" cy="40" r="24.5"/>
    <path class="cls-14" d="M435.75,31h3.07l-6.7,7.62,7.88,10.38h-6.17l-4.84-6.29-5.53,6.29h-3.07l7.17-8.16-7.56-9.84h6.33l4.36,5.75,5.06-5.75ZM434.67,47.17h1.7l-10.97-14.44h-1.82l11.09,14.44Z"/>
    <circle class="cls-6" cx="492.5" cy="39.5" r="17"/>
    <path class="cls-14" d="M502,40c0-5.52-4.48-10-10-10s-10,4.48-10,10c0,4.84,3.44,8.87,8,9.8v-6.8h-2v-3h2v-2.5c0-1.93,1.57-3.5,3.5-3.5h2.5v3h-2c-.55,0-1,.45-1,1v2h3v3h-3v6.95c5.05-.5,9-4.76,9-9.95Z"/>
    <circle class="cls-5" cx="155" cy="40" r="29.5"/>
    <path class="cls-14" d="M148.7,25h12.6c4.8,0,8.7,3.9,8.7,8.7v12.6c0,2.31-.92,4.52-2.55,6.15-1.63,1.63-3.85,2.55-6.15,2.55h-12.6c-4.8,0-8.7-3.9-8.7-8.7v-12.6c0-2.31.92-4.52,2.55-6.15,1.63-1.63,3.85-2.55,6.15-2.55ZM148.4,28c-1.43,0-2.81.57-3.82,1.58-1.01,1.01-1.58,2.39-1.58,3.82v13.2c0,2.99,2.41,5.4,5.4,5.4h13.2c1.43,0,2.81-.57,3.82-1.58,1.01-1.01,1.58-2.39,1.58-3.82v-13.2c0-2.99-2.41-5.4-5.4-5.4h-13.2ZM162.88,30.25c.5,0,.97.2,1.33.55.35.35.55.83.55,1.33s-.2.97-.55,1.33c-.35.35-.83.55-1.33.55s-.97-.2-1.33-.55c-.35-.35-.55-.83-.55-1.33s.2-.97.55-1.33c.35-.35.83-.55,1.33-.55ZM155,32.5c1.99,0,3.9.79,5.3,2.2,1.41,1.41,2.2,3.31,2.2,5.3s-.79,3.9-2.2,5.3c-1.41,1.41-3.31,2.2-5.3,2.2s-3.9-.79-5.3-2.2c-1.41-1.41-2.2-3.31-2.2-5.3s.79-3.9,2.2-5.3c1.41-1.41,3.31-2.2,5.3-2.2ZM155,35.5c-1.19,0-2.34.47-3.18,1.32-.84.84-1.32,1.99-1.32,3.18s.47,2.34,1.32,3.18c.84.84,1.99,1.32,3.18,1.32s2.34-.47,3.18-1.32c.84-.84,1.32-1.99,1.32-3.18s-.47-2.34-1.32-3.18c-.84-.84-1.99-1.32-3.18-1.32Z"/>
    <circle class="cls-1" cx="80" cy="40" r="24.5"/>
    <path class="cls-14" d="M85.66,31.76c-.92-1.04-1.42-2.38-1.42-3.76h-4.14v16.53c-.03.9-.41,1.74-1.06,2.36-.65.62-1.51.97-2.41.97-1.9,0-3.48-1.55-3.48-3.47,0-2.29,2.22-4.01,4.51-3.31v-4.21c-4.62-.61-8.67,2.96-8.67,7.52s3.7,7.6,7.62,7.6c4.21,0,7.62-3.4,7.62-7.6v-8.39c1.68,1.2,3.69,1.84,5.76,1.84v-4.12s-2.52.12-4.34-1.97Z"/>
    <circle class="cls-4" cx="17.5" cy="39.5" r="17"/>
    <path class="cls-14" d="M23.22,31c.47,0,.92.19,1.26.52.33.33.52.79.52,1.26v12.44c0,.47-.19.92-.52,1.26-.33.33-.79.52-1.26.52h-12.44c-.47,0-.92-.19-1.26-.52-.33-.33-.52-.79-.52-1.26v-12.44c0-.47.19-.92.52-1.26.33-.33.79-.52,1.26-.52h12.44ZM22.78,44.78v-4.71c0-.77-.31-1.51-.85-2.05-.54-.54-1.28-.85-2.05-.85s-1.64.46-2.06,1.16v-.99h-2.48v7.44h2.48v-4.38c0-.68.55-1.24,1.24-1.24.33,0,.65.13.88.36.23.23.36.55.36.88v4.38h2.48ZM12.45,35.94c.4,0,.78-.16,1.06-.44.28-.28.44-.66.44-1.06,0-.83-.67-1.5-1.49-1.5-.4,0-.78.16-1.06.44-.28.28-.44.66-.44,1.06,0,.83.68,1.49,1.5,1.49ZM13.68,44.78v-7.44h-2.46v7.44h2.46Z"/>
  </g>
</svg>